<?xml version="1.0" standalone="no"?>
<!DOCTYPE svg PUBLIC "-//W3C//DTD SVG 20010904//EN"
 "http://www.w3.org/TR/2001/REC-SVG-20010904/DTD/svg10.dtd">
<svg version="1.0" xmlns="http://www.w3.org/2000/svg"
 width="1024.000000pt" height="1024.000000pt" viewBox="0 0 1024.000000 1024.000000"
 preserveAspectRatio="xMidYMid meet">
<metadata>
Created by potrace 1.11, written by Peter Selinger 2001-2013
</metadata>
<g transform="translate(0.000000,1024.000000) scale(0.100000,-0.100000)"
fill="#000000" stroke="none">
<path d="M4638 10235 c-3 -4 -19 -8 -34 -9 -16 -2 -56 -7 -89 -10 -33 -4 -78
-9 -100 -12 -54 -7 -264 -42 -295 -50 -14 -3 -54 -12 -90 -19 -186 -39 -530
-135 -607 -170 -17 -8 -35 -15 -40 -15 -4 0 -53 -18 -108 -39 -574 -224 -1090
-539 -1570 -960 -98 -86 -419 -416 -506 -521 -99 -119 -178 -219 -216 -273
-12 -18 -26 -37 -31 -42 -5 -6 -54 -78 -109 -160 -268 -403 -487 -864 -629
-1325 -38 -124 -90 -320 -98 -376 -3 -18 -11 -53 -17 -76 -5 -24 -12 -53 -14
-65 -1 -11 -6 -29 -9 -40 -6 -21 -33 -194 -52 -338 -3 -27 -9 -68 -12 -90 -9
-60 -8 -981 1 -1050 4 -33 10 -86 13 -117 3 -31 7 -67 10 -80 2 -13 13 -75 24
-138 10 -63 21 -124 24 -135 3 -11 15 -63 26 -115 11 -52 29 -129 40 -170 11
-41 22 -82 23 -90 2 -8 6 -22 10 -30 4 -8 13 -40 21 -70 18 -73 43 -150 72
-230 70 -187 66 -177 135 -340 40 -95 147 -314 197 -405 78 -141 95 -171 113
-197 11 -14 19 -29 19 -33 0 -4 27 -43 60 -86 33 -43 58 -79 55 -79 -7 0 12
-24 38 -48 9 -9 17 -20 17 -24 0 -10 102 -152 113 -156 4 -2 5 -8 1 -13 -3 -5
1 -9 8 -9 7 0 19 -12 26 -27 7 -16 29 -47 50 -70 20 -23 46 -53 57 -67 11 -14
36 -44 55 -66 19 -21 55 -62 80 -91 25 -28 73 -80 108 -116 34 -37 62 -71 62
-76 0 -6 2 -8 5 -5 3 3 47 -36 99 -86 51 -50 117 -111 146 -136 49 -42 77 -66
148 -128 15 -13 39 -31 54 -40 16 -9 28 -22 28 -30 0 -7 5 -10 10 -7 6 3 10 1
10 -4 0 -6 6 -11 13 -11 7 0 19 -9 27 -20 8 -11 18 -20 23 -20 8 0 23 -11 58
-43 10 -9 21 -17 24 -17 3 0 39 -25 80 -55 41 -31 75 -53 75 -50 0 3 10 -3 22
-15 12 -11 27 -20 34 -20 6 0 15 -7 18 -16 3 -8 10 -13 15 -10 4 3 16 -3 26
-14 10 -11 22 -20 26 -20 4 0 28 -14 52 -30 25 -16 50 -30 56 -30 6 0 11 -3
11 -7 0 -5 10 -13 23 -18 44 -21 112 -60 125 -73 8 -7 18 -10 23 -7 5 4 9 3 9
-2 0 -9 48 -33 67 -33 7 0 13 -4 13 -8 0 -4 16 -14 35 -21 19 -7 35 -17 35
-23 0 -6 3 -8 7 -5 3 4 30 -7 60 -23 29 -17 53 -28 53 -26 0 2 27 -9 60 -25
33 -16 67 -29 75 -29 8 0 15 -5 15 -10 0 -6 3 -9 8 -8 6 1 32 -8 87 -34 12 -5
27 -10 35 -12 8 -1 31 -9 50 -18 19 -8 67 -25 105 -38 83 -27 113 -39 139 -52
14 -7 16 -6 10 4 -4 7 2 5 13 -5 11 -9 22 -14 26 -11 3 3 12 2 19 -2 13 -9 33
-14 56 -16 6 -1 12 -5 12 -9 0 -4 8 -8 18 -7 9 0 59 -12 110 -26 52 -14 98
-24 103 -20 5 3 9 1 9 -3 0 -5 10 -10 23 -11 28 -3 48 -7 67 -15 8 -4 29 -8
45 -11 17 -2 30 -5 30 -6 0 -2 32 -7 73 -11 17 -2 32 -6 32 -9 0 -3 10 -6 23
-7 32 -1 152 -19 152 -23 0 -1 18 -3 40 -5 22 -1 40 -3 40 -4 0 -2 25 -4 55
-7 77 -6 107 -11 121 -20 8 -4 10 -3 5 4 -8 13 6 16 18 5 4 -4 30 -8 59 -8 30
-1 57 -4 63 -7 10 -6 678 -2 729 4 17 2 36 7 44 12 10 6 12 5 7 -3 -6 -9 0
-10 21 -5 15 4 49 8 75 8 27 1 48 3 48 6 0 3 15 6 33 7 64 3 138 13 149 19 9
6 63 12 136 17 12 0 22 4 22 7 0 4 6 7 13 7 27 2 132 20 132 23 0 2 23 7 70
15 52 9 70 13 70 15 0 1 7 3 15 5 8 1 35 8 60 16 25 7 50 12 57 10 6 -1 14 3
18 8 3 6 12 8 20 4 8 -3 15 -1 15 5 0 6 8 9 18 7 9 -1 23 2 30 8 6 5 12 6 12
2 0 -4 7 -1 17 6 9 8 18 13 19 12 2 -1 9 -1 16 1 32 10 74 19 81 18 4 -1 7 2
7 6 0 5 6 9 13 9 12 0 159 51 212 74 17 7 36 11 43 10 6 -1 12 3 12 9 0 6 4 9
9 6 4 -3 17 1 27 9 10 8 25 15 33 15 7 0 41 13 75 29 33 16 99 46 146 66 47
21 87 42 88 47 2 4 7 6 12 3 4 -3 13 2 20 10 7 8 21 15 31 15 9 0 24 7 33 15
8 9 19 16 23 17 16 2 58 23 71 35 7 7 17 13 22 13 5 0 42 19 82 43 40 24 81
46 91 50 9 3 17 11 17 16 0 5 13 12 29 16 16 3 32 13 35 21 3 8 12 14 20 14 8
0 21 6 28 13 7 7 36 27 63 45 28 18 59 38 69 45 11 6 27 19 37 29 9 9 20 14
23 11 3 -4 6 -1 6 5 0 7 6 12 13 12 6 0 26 13 43 28 18 15 42 34 54 42 12 8
28 20 34 25 6 6 29 24 51 40 22 16 47 36 56 45 9 8 25 22 36 30 17 14 84 70
162 136 68 58 336 327 334 335 -2 4 6 11 17 14 11 4 20 13 20 21 0 8 5 12 10
9 6 -3 10 -2 10 3 0 5 18 27 40 50 21 23 37 42 34 42 -4 0 42 53 84 96 6 7 12
15 12 18 0 3 8 14 18 24 46 49 118 145 114 154 -1 5 2 8 6 8 9 0 79 93 74 98
-2 2 6 12 17 21 12 10 21 21 21 25 0 8 70 107 84 121 15 13 95 139 112 175 4
8 15 26 24 40 10 14 37 61 60 105 24 44 50 93 60 110 14 26 81 168 164 347 14
31 26 63 26 70 0 8 4 18 8 24 10 10 12 17 76 195 60 167 151 485 177 618 11
58 22 115 25 126 12 53 44 246 49 295 3 30 8 66 10 80 3 14 6 44 7 68 1 24 5
45 10 48 11 7 11 964 0 964 -5 0 -9 6 -9 13 0 45 -16 182 -27 251 -8 44 -17
101 -20 126 -3 25 -8 56 -12 70 -3 14 -7 34 -9 45 -102 585 -396 1300 -758
1845 -49 74 -103 151 -118 171 -16 20 -29 40 -29 43 0 3 -8 15 -17 25 -10 11
-23 26 -28 33 -16 21 -78 101 -95 122 -17 22 -71 85 -148 174 -127 147 -383
394 -562 544 -25 21 -56 47 -70 59 -14 12 -41 33 -60 48 -19 14 -37 28 -40 31
-12 13 -194 141 -286 202 -103 68 -370 228 -380 228 -3 0 -20 10 -37 22 -18
13 -32 21 -32 19 0 -1 -65 29 -145 68 -212 103 -309 143 -555 231 -73 26 -269
87 -305 95 -8 1 -40 10 -70 19 -45 13 -192 46 -310 70 -14 3 -36 7 -50 10 -45
10 -134 25 -178 31 -24 3 -53 7 -65 10 -12 3 -51 7 -87 10 -36 4 -78 9 -95 12
-40 8 -990 15 -997 8z"/>
</g>
</svg>
